# xmcd CD database file
# Copyright (C) 1996 Ti Kan
#
# Track frame offsets:
#	150
#	12741
#	37274
#	52683
#	67284
#	83723
#	101365
#	122087
#	138507
#	156486
#	170457
#	193814
#	208366
#	226337
#	250946
#	272971
#	288190
#	303552
# Disc length: 4289 seconds
#
# Revision: 1
# Processed by: cddbd v1.4PL0 Copyright (c) Steve Scherf et al.
# Submitted via: CDCOPY 4.900
#
DISCID=1410bf12
DTITLE=Sure Got the Blues - Sure Got the Blues
DYEAR=1900
DGENRE=
TTITLE0=Lovesick
TTITLE1=Dead Man's Blues
TTITLE2=Surefire Kisses
TTITLE3=Judith Dancing
TTITLE4=Low... and Then Some
TTITLE5=Blues Junkie
TTITLE6=Do the Do
TTITLE7=18 Holes
TTITLE8=Just Tell Me with Your Kiss
TTITLE9=Meantime
TTITLE10=Blues Won't Leave Me Tonight
TTITLE11=Angels Would Cry
TTITLE12=One Way Ticket
TTITLE13=When a Woman Starts to Cry
TTITLE14=Mr. Daniels
TTITLE15=The Cradle
TTITLE16=Mutha Gooz Blooz
TTITLE17=Isn't There Any Other Way
EXTD=
EXTT0=
EXTT1=
EXTT2=
EXTT3=
EXTT4=
EXTT5=
EXTT6=
EXTT7=
EXTT8=
EXTT9=
EXTT10=
EXTT11=
EXTT12=
EXTT13=
EXTT14=
EXTT15=
EXTT16=
EXTT17=
PLAYORDER=
